<svg width="20" height="20" viewBox="0 0 20 20" fill="none" xmlns="http://www.w3.org/2000/svg">
<path d="M2.5 9.99131V12.0833C2.5 14.8331 2.5 16.2081 3.35427 17.0624C4.20854 17.9166 5.58347 17.9166 8.33333 17.9166H11.6667C14.4165 17.9166 15.7914 17.9166 16.6457 17.0624C17.5 16.2081 17.5 14.8331 17.5 12.0833V9.99131C17.5 8.59023 17.5 7.88975 17.2034 7.28335C16.9068 6.67695 16.3539 6.24688 15.248 5.38674L13.5813 4.09044C11.8609 2.75235 11.0007 2.08331 10 2.08331C8.99925 2.08331 8.13908 2.75235 6.41868 4.09044L4.75201 5.38674C3.64611 6.24688 3.09316 6.67695 2.79658 7.28335C2.5 7.88975 2.5 8.59023 2.5 9.99131Z" stroke="#6A697A" stroke-width="1.25" stroke-linecap="round" stroke-linejoin="round"/>
<path d="M11.6666 12.5C11.6666 11.5795 10.9205 10.8333 9.99998 10.8333C9.07948 10.8333 8.33331 11.5795 8.33331 12.5C8.33331 13.4205 9.07948 14.1666 9.99998 14.1666C10.9205 14.1666 11.6666 13.4205 11.6666 12.5Z" stroke="#6A697A" stroke-width="1.25" stroke-linejoin="round"/>
</svg>
