<svg width="20" height="20" viewBox="0 0 20 20" fill="none" xmlns="http://www.w3.org/2000/svg">
<path opacity="0.4" fill-rule="evenodd" clip-rule="evenodd" d="M10 2.08337C11.0007 2.08337 11.8612 2.75212 13.5816 4.09021L15.2482 5.3866C16.3541 6.24672 16.9072 6.67717 17.2038 7.28357C17.5002 7.88987 17.5 8.59046 17.5 9.99112V12.0834C17.5 14.8332 17.4997 16.208 16.6455 17.0622C15.7912 17.9165 14.4165 17.9167 11.6667 17.9167H8.33333C5.58347 17.9167 4.20877 17.9165 3.35449 17.0622C2.50022 16.208 2.5 14.8332 2.5 12.0834V9.99112C2.5 8.59046 2.49979 7.88987 2.79622 7.28357C3.0928 6.67717 3.64592 6.24672 4.75179 5.3866L6.41846 4.09021C8.13885 2.75212 8.99925 2.08337 10 2.08337ZM10 10.8334C9.0795 10.8334 8.33333 11.5795 8.33333 12.5C8.33333 13.4205 9.0795 14.1667 10 14.1667C10.9205 14.1667 11.6667 13.4205 11.6667 12.5C11.6667 11.5795 10.9205 10.8334 10 10.8334Z" fill="#1E1852"/>
<path d="M2.5 9.99138V12.0834C2.5 14.8332 2.5 16.2081 3.35427 17.0625C4.20854 17.9167 5.58347 17.9167 8.33333 17.9167H11.6667C14.4165 17.9167 15.7914 17.9167 16.6457 17.0625C17.5 16.2081 17.5 14.8332 17.5 12.0834V9.99138C17.5 8.59029 17.5 7.88982 17.2034 7.28342C16.9068 6.67702 16.3539 6.24694 15.248 5.3868L13.5813 4.0905C11.8609 2.75242 11.0007 2.08337 10 2.08337C8.99925 2.08337 8.13908 2.75242 6.41868 4.0905L4.75201 5.3868C3.64611 6.24694 3.09316 6.67702 2.79658 7.28342C2.5 7.88982 2.5 8.59029 2.5 9.99138Z" stroke="#1E1852" stroke-width="1.5" stroke-linecap="round" stroke-linejoin="round"/>
<path d="M11.6667 12.5C11.6667 11.5795 10.9205 10.8334 10 10.8334C9.0795 10.8334 8.33333 11.5795 8.33333 12.5C8.33333 13.4205 9.0795 14.1667 10 14.1667C10.9205 14.1667 11.6667 13.4205 11.6667 12.5Z" stroke="#1E1852" stroke-width="1.5" stroke-linejoin="round"/>
</svg>
