<svg width="20" height="20" viewBox="0 0 20 20" fill="none" xmlns="http://www.w3.org/2000/svg">
<path opacity="0.4" d="M2.5 8.33335V11.6667C2.5 14.8094 2.5 16.3808 3.47631 17.357C4.45262 18.3334 6.02397 18.3334 9.16667 18.3334C10.7278 18.3334 11.9012 18.3334 12.8066 18.2137C11.1922 17.7954 10 16.3285 10 14.5834C10 12.5123 11.6789 10.8334 13.75 10.8334C14.5209 10.8334 15.2375 11.0659 15.8333 11.4649V8.33335C15.8333 5.19065 15.8333 3.61931 14.857 2.643C13.8807 1.66669 12.3093 1.66669 9.16667 1.66669C6.02397 1.66669 4.45262 1.66669 3.47631 2.643C2.5 3.61931 2.5 5.19065 2.5 8.33335Z" fill="#1E1852"/>
<path d="M15.8333 8.75002V8.33331C15.8333 5.19065 15.8333 3.61928 14.8569 2.64297C13.8807 1.66669 12.3093 1.66669 9.16667 1.66669C6.02403 1.66669 4.45267 1.66674 3.47636 2.64301C2.50008 3.61931 2.50006 5.19062 2.50003 8.33325L2.5 12.0834C2.49998 14.8229 2.49997 16.1927 3.25657 17.1146C3.3951 17.2834 3.54988 17.4382 3.71868 17.5768C4.64064 18.3334 6.01041 18.3334 8.74992 18.3334" stroke="#1E1852" stroke-width="1.25" stroke-linecap="round" stroke-linejoin="round"/>
<path d="M5.83331 5.83331H12.5M5.83331 9.16665H9.16665" stroke="#1E1852" stroke-width="1.25" stroke-linecap="round" stroke-linejoin="round"/>
<path d="M15 15.4166L13.75 14.9583V12.9166M10 14.5833C10 16.6544 11.6789 18.3333 13.75 18.3333C15.8211 18.3333 17.5 16.6544 17.5 14.5833C17.5 12.5122 15.8211 10.8333 13.75 10.8333C11.6789 10.8333 10 12.5122 10 14.5833Z" stroke="#1E1852" stroke-width="1.25" stroke-linecap="round" stroke-linejoin="round"/>
</svg>
