<svg width="20" height="20" viewBox="0 0 20 20" fill="none" xmlns="http://www.w3.org/2000/svg">
<path d="M8.75 18.3333H4.16667C3.24618 18.3333 2.49999 17.5871 2.5 16.6666L2.50012 3.33328C2.50012 2.41281 3.24632 1.66663 4.16678 1.66663H14.1667C15.0872 1.66663 15.8333 2.41282 15.8333 3.33329V8.74996" stroke="#9E9BB5" stroke-width="1.25" stroke-linecap="round" stroke-linejoin="round"/>
<path d="M5.83333 5.83337H12.5M5.83333 9.16671H9.16666" stroke="#9E9BB5" stroke-width="1.25" stroke-linecap="round" stroke-linejoin="round"/>
<path d="M15 15.4167L13.75 14.9584V12.9167M10 14.5834C10 16.6545 11.6789 18.3334 13.75 18.3334C15.8211 18.3334 17.5 16.6545 17.5 14.5834C17.5 12.5123 15.8211 10.8334 13.75 10.8334C11.6789 10.8334 10 12.5123 10 14.5834Z" stroke="#9E9BB5" stroke-width="1.25" stroke-linecap="round" stroke-linejoin="round"/>
</svg>
